<?xml version="1.0" encoding="iso-8859-1"?>
<!-- Generator: Adobe Illustrator 18.0.0, SVG Export Plug-In . SVG Version: 6.00 Build 0)  -->
<!DOCTYPE svg PUBLIC "-//W3C//DTD SVG 1.1//EN" "http://www.w3.org/Graphics/SVG/1.1/DTD/svg11.dtd">
<svg version="1.1" id="&#x421;&#x43B;&#x43E;&#x439;_1"
	 xmlns="http://www.w3.org/2000/svg" xmlns:xlink="http://www.w3.org/1999/xlink" x="0px" y="0px" viewBox="0 0 11.471 8.359"
	 style="enable-background:new 0 0 11.471 8.359;" xml:space="preserve">
<path id="XMLID_245_" d="M0.152,3.789C0.051,3.688,0,3.535,0,3.434S0.051,3.18,0.152,3.078l0.711-0.711
	c0.203-0.203,0.508-0.203,0.711,0l0.051,0.051l2.793,2.996c0.102,0.102,0.254,0.102,0.355,0l5.073-5.262h0.051l0,0
	c0.203-0.203,0.508-0.203,0.711,0l0.711,0.711c0.203,0.203,0.203,0.508,0,0.711l0,0L4.925,8.207C4.824,8.308,4.722,8.359,4.57,8.359
	c-0.152,0-0.254-0.051-0.355-0.152L0.254,3.942L0.152,3.789z"/>
<g>
</g>
<g>
</g>
<g>
</g>
<g>
</g>
<g>
</g>
<g>
</g>
<g>
</g>
<g>
</g>
<g>
</g>
<g>
</g>
<g>
</g>
<g>
</g>
<g>
</g>
<g>
</g>
<g>
</g>
</svg>
