<?xml version="1.0" encoding="iso-8859-1"?>
<!-- Generator: Adobe Illustrator 18.0.0, SVG Export Plug-In . SVG Version: 6.00 Build 0)  -->
<!DOCTYPE svg PUBLIC "-//W3C//DTD SVG 1.1//EN" "http://www.w3.org/Graphics/SVG/1.1/DTD/svg11.dtd">
<svg version="1.1" id="&#x421;&#x43B;&#x43E;&#x439;_1"
	 xmlns="http://www.w3.org/2000/svg" xmlns:xlink="http://www.w3.org/1999/xlink" x="0px" y="0px" viewBox="0 0 17 17"
	 style="enable-background:new 0 0 17 17;" xml:space="preserve">
<path id="XMLID_246_" style="fill:#37474F;stroke:#37474F;stroke-miterlimit:10;" d="M14.5,16.5h-12c-1.105,0-2-0.895-2-2v-12
	c0-1.105,0.895-2,2-2h12c1.105,0,2,0.895,2,2v12C16.5,15.605,15.605,16.5,14.5,16.5z"/>
<path id="XMLID_245_" style="fill:#FFFFFF;" d="M2.863,7.467C2.762,7.366,2.711,7.214,2.711,7.112c0-0.102,0.051-0.254,0.152-0.355
	l0.711-0.711c0.203-0.203,0.508-0.203,0.711,0l0.051,0.051l2.793,2.996c0.102,0.102,0.254,0.102,0.355,0l5.073-5.262h0.051l0,0
	c0.203-0.203,0.508-0.203,0.711,0l0.711,0.711c0.203,0.203,0.203,0.508,0,0.711l0,0l-6.393,6.633
	c-0.102,0.102-0.203,0.152-0.355,0.152c-0.152,0-0.254-0.051-0.355-0.152L2.965,7.62L2.863,7.467z"/>
<g>
</g>
<g>
</g>
<g>
</g>
<g>
</g>
<g>
</g>
<g>
</g>
<g>
</g>
<g>
</g>
<g>
</g>
<g>
</g>
<g>
</g>
<g>
</g>
<g>
</g>
<g>
</g>
<g>
</g>
</svg>
