<?xml version="1.0" encoding="iso-8859-1"?>
<!-- Generator: Adobe Illustrator 18.0.0, SVG Export Plug-In . SVG Version: 6.00 Build 0)  -->
<!DOCTYPE svg PUBLIC "-//W3C//DTD SVG 1.1//EN" "http://www.w3.org/Graphics/SVG/1.1/DTD/svg11.dtd">
<svg version="1.1" id="&#x421;&#x43B;&#x43E;&#x439;_1"
	 xmlns="http://www.w3.org/2000/svg" xmlns:xlink="http://www.w3.org/1999/xlink" x="0px" y="0px" viewBox="0 0 15.214 15.214"
	 style="enable-background:new 0 0 15.214 15.214;" xml:space="preserve">
<g id="XMLID_463_">
	<g id="XMLID_464_">
		<path id="XMLID_470_" style="fill:#B0BEC5;" d="M9.509,11.41c3.151,0,5.705-2.554,5.705-5.705S12.659,0,9.509,0
			C6.358,0,3.803,2.555,3.803,5.705S6.358,11.41,9.509,11.41z M5.23,5.705c0-2.36,1.92-4.279,4.279-4.279
			c2.36,0,4.279,1.919,4.279,4.279s-1.919,4.279-4.279,4.279C7.149,9.984,5.23,8.065,5.23,5.705z"/>
		<path id="XMLID_466_" style="fill:#B0BEC5;" d="M0.418,14.796c0.556,0.557,1.46,0.557,2.017,0l3.491-3.491
			c-0.809-0.52-1.497-1.208-2.017-2.017l-3.49,3.491C-0.139,13.336-0.139,14.24,0.418,14.796z"/>
	</g>
</g>
<g>
</g>
<g>
</g>
<g>
</g>
<g>
</g>
<g>
</g>
<g>
</g>
<g>
</g>
<g>
</g>
<g>
</g>
<g>
</g>
<g>
</g>
<g>
</g>
<g>
</g>
<g>
</g>
<g>
</g>
</svg>
