<svg id="Слой_1" data-name="Слой 1" xmlns="http://www.w3.org/2000/svg" viewBox="0 0 15.21 15.6"><defs><style>.cls-1{fill:#fff;}</style></defs><title>search-white</title><g id="_Группа_" data-name="&lt;Группа&gt;"><g id="_Группа_2" data-name="&lt;Группа&gt;"><path id="_Составной_контур_" data-name="&lt;Составной контур&gt;" class="cls-1" d="M2890.08,940.26a5.85,5.85,0,1,0-5.71-5.85A5.78,5.78,0,0,0,2890.08,940.26Zm-4.28-5.85a4.28,4.28,0,1,1,4.28,4.39A4.34,4.34,0,0,1,2885.8,934.41Z" transform="translate(-2880.57 -928.56)"/><path id="_Контур_" data-name="&lt;Контур&gt;" class="cls-1" d="M2881,943.73a1.4,1.4,0,0,0,2,0l3.49-3.58a6.81,6.81,0,0,1-2-2.07l-3.49,3.58A1.49,1.49,0,0,0,2881,943.73Z" transform="translate(-2880.57 -928.56)"/></g></g></svg>